<?xml version="1.0" standalone="no"?>
<!DOCTYPE svg PUBLIC "-//W3C//DTD SVG 20010904//EN"
 "http://www.w3.org/TR/2001/REC-SVG-20010904/DTD/svg10.dtd">
<svg version="1.0" xmlns="http://www.w3.org/2000/svg"
 width="50.000000pt" height="100.000000pt" viewBox="0 0 100.000000 73.000000"
 preserveAspectRatio="xMidYMid meet">
<metadata>
Created by potrace 1.16, written by Peter Selinger 2001-2019
</metadata>
<g transform="translate(15.000000,85.000000) scale(0.100000,-0.100000)"
fill="#000000" stroke="none">
<path d="M181 719 c-24 -5 -54 -15 -68 -24 l-23 -16 2 -192 3 -192 40 -20 c51
-25 192 -27 245 -3 32 14 38 14 59 0 34 -23 149 -22 184 1 27 17 27 18 27 137
0 118 0 120 -26 136 -28 19 -110 24 -156 11 l-28 -7 0 59 c0 52 -3 62 -25 80
-46 35 -142 48 -234 30z m207 -33 c40 -21 40 -31 0 -52 -91 -47 -321 -12 -267
41 38 37 204 44 267 11z m-108 -93 c47 2 95 8 108 12 20 7 22 4 22 -33 0 -35
-4 -41 -32 -53 -45 -19 -194 -18 -233 1 -25 13 -30 22 -33 57 l-3 41 43 -15
c30 -10 68 -13 128 -10z m-19 -113 c43 0 95 6 118 15 l42 15 -3 -43 c-3 -37
-7 -44 -38 -59 -45 -23 -185 -25 -235 -4 -32 14 -35 18 -35 59 l0 45 38 -14
c20 -7 71 -13 113 -14z m-71 -111 c52 -12 109 -11 168 5 l52 13 0 -39 c0 -35
-4 -40 -35 -54 -45 -19 -185 -19 -230 0 -32 14 -35 19 -35 56 0 38 2 41 23 34
12 -4 38 -11 57 -15z"/>
</g>
</svg>
