
<svg version="1.0" xmlns="http://www.w3.org/2000/svg"
 width="25.000000pt" height="400.000000pt" viewBox="0 0 256.000000 256.000000"
 preserveAspectRatio="xMidYMid meet">

<g transform="translate(0.000000,256.000000) scale(0.100000,-0.100000)"
fill="#000000" stroke="none">
<path d="M1240 2380 l0 -100 40 0 40 0 0 100 0 100 -40 0 -40 0 0 -100z"/>
<path d="M686 2376 l-29 -24 58 -66 c32 -36 61 -66 64 -66 3 0 18 10 34 23
l28 22 -57 65 c-31 36 -60 66 -63 67 -3 1 -19 -8 -35 -21z"/>
<path d="M1777 2328 l-68 -61 27 -28 27 -28 31 26 c17 14 48 41 70 60 l38 35
-28 29 -29 28 -68 -61z"/>
<path d="M892 2188 c-8 -8 -12 -51 -12 -129 0 -141 3 -145 90 -135 55 6 62 5
85 -18 32 -32 32 -70 0 -102 -23 -23 -30 -24 -85 -18 -87 10 -90 5 -90 -130 0
-74 4 -116 12 -124 8 -8 49 -12 120 -12 l108 0 0 -37 c0 -52 35 -118 76 -144
78 -48 184 -17 223 65 12 23 21 59 21 79 l0 37 108 0 c71 0 112 4 120 12 8 8
12 50 12 124 0 135 -3 140 -90 130 -55 -6 -62 -5 -85 18 -32 32 -32 70 0 102
24 24 30 25 86 19 87 -10 89 -6 89 134 0 78 -4 121 -12 129 -17 17 -759 17
-776 0z m708 -125 l0 -58 -49 0 c-86 0 -146 -62 -146 -150 0 -88 60 -150 146
-150 l49 0 0 -52 0 -53 -108 0 c-71 0 -112 -4 -120 -12 -7 -7 -12 -39 -12 -75
0 -54 -4 -68 -25 -88 -32 -33 -78 -33 -110 0 -21 20 -25 34 -25 88 0 36 -5 68
-12 75 -8 8 -49 12 -120 12 l-108 0 0 53 0 52 49 0 c86 0 146 62 146 150 0 88
-60 150 -146 150 l-49 0 0 58 0 57 320 0 320 0 0 -57z"/>
<path d="M600 1840 l0 -40 100 0 100 0 0 40 0 40 -100 0 -100 0 0 -40z"/>
<path d="M1760 1840 l0 -40 100 0 100 0 0 40 0 40 -100 0 -100 0 0 -40z"/>
<path d="M172 1348 c-17 -17 -17 -1239 0 -1256 17 -17 2199 -17 2216 0 17 17
17 1239 0 1256 -17 17 -759 17 -776 0 -7 -7 -12 -44 -12 -94 l0 -82 -53 -4
c-95 -8 -154 -75 -144 -164 9 -80 72 -134 156 -134 l41 0 0 -55 0 -55 -108 0
c-71 0 -112 -4 -120 -12 -7 -7 -12 -33 -12 -60 0 -60 -15 -94 -51 -108 -33
-14 -62 -6 -89 23 -15 15 -20 35 -20 77 0 31 -5 61 -12 68 -8 8 -49 12 -120
12 l-108 0 0 55 0 55 41 0 c84 0 147 54 156 134 10 89 -49 156 -144 164 l-53
4 0 82 c0 50 -5 87 -12 94 -17 17 -759 17 -776 0z m708 -157 c0 -109 5 -115
90 -105 55 6 63 4 85 -16 32 -30 32 -70 0 -100 -22 -20 -30 -22 -85 -16 -85
10 -90 4 -90 -105 l0 -89 -79 0 -78 0 -6 46 c-6 58 -31 93 -87 122 -56 28 -84
28 -140 0 -56 -29 -81 -64 -87 -122 l-6 -46 -78 0 -79 0 0 260 0 260 320 0
320 0 0 -89z m1440 -171 l0 -260 -80 0 -80 0 0 32 c0 46 -34 109 -73 136 -44
29 -126 30 -173 2 -37 -24 -74 -91 -74 -138 l0 -32 -80 0 -80 0 0 89 c0 109
-5 115 -90 105 -55 -6 -63 -4 -85 16 -15 14 -25 35 -25 50 0 15 10 36 25 50
22 20 30 22 85 16 85 -10 90 -4 90 105 l0 89 320 0 320 0 0 -260z m-1697 -181
c12 -15 17 -39 17 -78 0 -31 5 -62 12 -69 8 -8 49 -12 120 -12 l108 0 0 -54 0
-54 -53 -4 c-95 -8 -154 -75 -144 -164 9 -80 72 -134 156 -134 l41 0 0 -55 0
-55 -320 0 -320 0 0 260 0 260 108 0 c71 0 112 4 120 12 7 7 12 36 12 66 0 29
5 62 11 73 23 43 99 47 132 8z m1410 20 c32 -15 47 -49 47 -107 0 -27 5 -53
12 -60 8 -8 49 -12 120 -12 l108 0 0 -260 0 -260 -320 0 -320 0 0 55 0 55 41
0 c84 0 147 54 156 134 10 89 -49 156 -144 164 l-53 4 0 54 0 54 108 0 c71 0
112 4 120 12 7 7 12 37 12 67 1 58 10 79 45 99 25 14 38 15 68 1z m-913 -211
c0 -46 34 -109 73 -135 44 -30 126 -31 173 -3 37 24 74 91 74 138 l0 32 80 0
80 0 0 -89 c0 -109 5 -115 90 -105 55 6 63 4 85 -16 15 -14 25 -35 25 -50 0
-15 -10 -36 -25 -50 -22 -20 -30 -22 -85 -16 -85 10 -90 4 -90 -105 l0 -89
-320 0 -320 0 0 89 c0 109 -5 115 -90 105 -55 -6 -63 -4 -85 16 -15 14 -25 35
-25 50 0 15 10 36 25 50 22 20 30 22 85 16 85 -10 90 -4 90 105 l0 89 80 0 80
0 0 -32z"/>
</g>
</svg>
