
<svg version="1.0" xmlns="http://www.w3.org/2000/svg"
 width="25.000000pt" height="512.000000pt" viewBox="0 0 512.000000 512.000000"
 preserveAspectRatio="xMidYMid meet">

<g transform="translate(0.000000,512.000000) scale(0.100000,-0.100000)"
fill="#000000" stroke="none">
<path d="M3530 5067 c-386 -214 -674 -385 -693 -412 -16 -22 -22 -45 -22 -85
0 -40 6 -63 22 -85 19 -27 307 -198 693 -412 106 -59 139 -64 200 -33 67 34
80 74 80 240 l0 140 398 0 c453 0 464 -2 537 -75 81 -80 75 34 75 -1535 0
-1569 6 -1455 -75 -1535 -52 -53 -116 -75 -212 -75 l-73 0 0 -151 0 -152 113
6 c120 6 193 25 276 74 107 63 200 178 243 301 l23 67 0 1465 0 1465 -23 67
c-57 164 -179 287 -348 350 -57 22 -73 22 -496 26 l-438 3 0 140 c0 165 -13
205 -80 239 -61 31 -94 26 -200 -33z"/>
<path d="M445 4710 c-194 -40 -352 -179 -417 -368 l-23 -67 0 -1465 0 -1465
23 -67 c43 -123 136 -238 243 -301 83 -49 156 -68 277 -74 l112 -6 0 152 0
151 -73 0 c-96 0 -160 22 -212 75 -81 80 -75 -34 -75 1535 0 1569 -6 1455 75
1535 77 78 45 75 877 75 721 0 740 0 778 20 45 23 80 80 80 130 0 50 -35 107
-80 130 -38 20 -56 20 -792 19 -414 -1 -771 -5 -793 -9z"/>
<path d="M1213 2086 c-102 -32 -176 -97 -222 -196 l-26 -55 0 -785 0 -785 26
-56 c37 -79 90 -133 167 -171 l67 -33 1335 0 1335 0 67 33 c77 38 130 92 167
171 l26 56 0 785 0 785 -33 67 c-38 77 -92 130 -171 167 l-56 26 -1320 2
c-1072 1 -1328 -1 -1362 -11z m774 -556 c17 -10 36 -27 41 -37 24 -46 312
-822 312 -841 0 -35 -22 -73 -51 -88 -71 -36 -123 -1 -164 111 l-27 75 -170 0
-169 0 -20 -47 c-11 -27 -27 -65 -36 -86 -17 -39 -55 -67 -93 -67 -51 0 -100
49 -100 100 0 10 58 171 129 357 206 541 189 502 225 524 40 24 82 24 123 -1z
m672 6 c49 -26 51 -40 51 -426 l0 -360 100 0 c110 0 145 -11 166 -51 23 -45
17 -78 -20 -115 l-34 -34 -167 0 c-181 0 -212 7 -234 57 -17 38 -14 861 3 892
26 47 84 63 135 37z m620 0 c49 -26 51 -40 51 -426 l0 -360 100 0 c110 0 145
-11 166 -51 23 -45 17 -78 -20 -115 l-34 -34 -166 0 c-182 0 -212 7 -234 55
-18 39 -16 861 2 894 26 47 84 63 135 37z"/>
<path d="M1878 1073 l-45 -118 90 -3 c49 -1 91 -1 93 1 4 4 -76 219 -86 230
-4 4 -27 -45 -52 -110z"/>
</g>
</svg>
