<svg version="1.0" xmlns="http://www.w3.org/2000/svg"
width="25.000000pt" height="512.000000pt" viewBox="0 0 512.000000 512.000000"
preserveAspectRatio="xMidYMid meet">

<g transform="translate(0.000000,512.000000) scale(0.100000,-0.100000)"
fill="#000000" stroke="none">
<path d="M3310 5109 c-81 -32 -121 -131 -89 -216 5 -15 132 -151 282 -300
l271 -273 -1436 -2 c-1433 -3 -1437 -3 -1464 -24 -15 -11 -37 -33 -48 -48 -21
-27 -21 -38 -24 -792 -3 -847 -6 -807 64 -860 31 -24 47 -29 94 -29 46 0 63 5
92 27 71 54 68 22 68 752 l0 656 1326 0 1326 0 -262 -267 c-145 -148 -271
-281 -281 -298 -38 -61 -16 -164 43 -207 33 -23 102 -34 145 -23 31 7 261 231
653 636 224 231 239 248 245 291 5 31 2 56 -9 82 -23 56 -825 869 -877 890
-44 18 -82 19 -119 5z"/>
<path d="M4095 2546 c-37 -17 -70 -52 -84 -89 -7 -19 -11 -243 -11 -683 l0
-654 -1327 0 -1328 0 120 123 c66 67 188 192 272 277 84 85 157 168 163 183
39 106 -33 217 -142 217 -26 0 -57 -4 -70 -9 -13 -5 -181 -168 -374 -363 -470
-473 -501 -507 -510 -553 -15 -84 -13 -87 433 -541 243 -247 430 -430 451
-440 96 -45 209 24 220 135 4 41 0 58 -21 93 -14 24 -138 155 -276 293 -138
137 -251 253 -251 257 0 5 641 8 1424 8 l1423 0 33 23 c18 12 43 35 54 50 21
28 21 33 21 807 0 771 0 779 -21 806 -11 15 -32 37 -46 47 -34 25 -113 32
-153 13z"/>
</g>
</svg>
