
<svg version="1.0" xmlns="http://www.w3.org/2000/svg"
 width="25.000000pt" height="100.000000pt" viewBox="0 0 250.000000 100.000000"
 preserveAspectRatio="xMidYMid meet">

<g transform="translate(0.000000,200.000000) scale(0.100000,-0.100000)"
fill="#000000" stroke="none">
<path d="M1080 2169 c-87 -13 -217 -59 -286 -100 -83 -50 -149 -112 -141 -132
10 -27 32 -20 99 31 168 126 387 176 606 138 106 -18 228 -62 287 -103 l40
-28 -80 -5 c-77 -5 -80 -6 -80 -30 l0 -25 130 0 130 0 -3 96 c-3 121 -12 153
-40 157 -25 4 -25 1 -22 -80 1 -32 -1 -58 -5 -58 -4 0 -20 9 -36 21 -49 34
-156 78 -242 99 -97 24 -266 33 -357 19z"/>
<path d="M535 1768 c-82 -15 -187 -72 -252 -136 -291 -287 -146 -774 257 -858
308 -65 600 177 600 496 0 140 -48 258 -145 355 -124 124 -290 176 -460 143z"/>
<path d="M1825 1768 c-135 -25 -288 -140 -348 -259 -118 -236 -48 -516 163
-658 202 -134 467 -110 636 58 100 98 154 226 154 361 0 318 -291 558 -605
498z m200 -102 c121 -32 207 -102 262 -214 37 -73 38 -80 38 -181 0 -98 -2
-111 -32 -173 -122 -258 -457 -315 -659 -114 -189 190 -141 519 94 644 97 52
198 65 297 38z"/>
<path d="M741 641 c-12 -8 -12 -26 0 -128 14 -115 15 -118 39 -118 25 0 25 1
22 68 -2 37 -1 67 1 67 3 0 32 -16 64 -35 144 -85 369 -129 549 -106 126 15
266 62 368 123 96 58 131 90 123 112 -10 24 -32 19 -84 -18 -257 -184 -615
-216 -888 -79 -109 55 -110 57 -19 63 76 5 79 6 79 30 l0 25 -120 3 c-66 1
-126 -2 -134 -7z"/>
</g>
</svg>
