<svg class="icon line" width="32" height="32" id="maximize-size" xmlns="http://www.w3.org/2000/svg" viewBox="0 0 24 24"><path d="M3,8V4A1,1,0,0,1,4,3H8M9,9,3.29,3.29" style="fill: none; stroke: rgb(0, 0, 0); stroke-linecap: round; stroke-linejoin: round; stroke-width: 2;"></path><path d="M16,3h4a1,1,0,0,1,1,1V8M15,9l5.71-5.71" style="fill: none; stroke: rgb(0, 0, 0); stroke-linecap: round; stroke-linejoin: round; stroke-width: 2;"></path><path d="M8,21H4a1,1,0,0,1-1-1V16m6-1L3.29,20.71" style="fill: none; stroke: rgb(0, 0, 0); stroke-linecap: round; stroke-linejoin: round; stroke-width: 2;"></path><path d="M21,16v4a1,1,0,0,1-1,1H16m4.71-.29L15,15" style="fill: none; stroke: rgb(0, 0, 0); stroke-linecap: round; stroke-linejoin: round; stroke-width: 2;"></path></svg>