<?xml version="1.0" encoding="iso-8859-1"?>
<!-- Generator: Adobe Illustrator 18.1.1, SVG Export Plug-In . SVG Version: 6.00 Build 0)  -->
<svg version="1.1" id="Capa_1" xmlns="http://www.w3.org/2000/svg" xmlns:xlink="http://www.w3.org/1999/xlink" x="0px" y="0px"
	 viewBox="0 0 410.267 410.267" style="enable-background:new 0 0 410.267 410.267;" xml:space="preserve">
<g>
	<g>
		<path d="M17,154.133h124.1c9.35,0,15.867-8.783,15.867-18.417V17c0-9.35-7.65-17-17-17s-17,7.65-17,17v80.183l-86.7-87.267
			c-6.517-6.517-17.283-6.517-23.8,0c-6.517,6.517-6.517,18.133,0,24.65l85,85.567H17c-9.35,0-17,7.65-17,17
			S7.65,154.133,17,154.133z"/>
		<path d="M17,287.3h78.767l-85.85,85.85c-6.517,6.517-6.517,17.567,0,24.083c3.4,3.4,7.65,5.1,11.9,5.1s8.5-1.7,11.9-4.817
			l86.417-86.417v82.167c0,9.35,7.65,17,17,17s17-7.65,17-17v-122.4c0-9.35-7.367-17.283-16.717-17.283H17c-9.35,0-17,7.65-17,17
			C0,279.933,7.65,287.3,17,287.3z"/>
		<path d="M410.267,278.8c0-9.35-7.65-17-17-17h-121.55c-9.35,0-18.417,6.517-18.417,15.867v115.317c0,9.35,7.65,17,17,17
			s17-7.65,17-17v-77.35l85.567,84.717c3.4,3.4,7.933,5.1,12.467,5.1c4.533,0,8.783-1.7,12.183-5.1c6.517-6.517,6.8-17,0-23.517
			l-81.6-81.033h77.35C402.617,295.8,410.267,288.15,410.267,278.8z"/>
		<path d="M393.267,125.8H311.1l86.133-86.133c6.517-6.517,6.517-17.283,0-24.083c-6.517-6.517-18.133-6.517-24.65,0L287.3,100.3V17
			c0-9.35-7.65-17-17-17s-17,7.65-17,17v125.8c0,9.35,9.067,17,18.417,17h121.55c9.35,0,17-7.65,17-17S402.617,125.8,393.267,125.8z
			"/>
	</g>
</g>
<g>
</g>
<g>
</g>
<g>
</g>
<g>
</g>
<g>
</g>
<g>
</g>
<g>
</g>
<g>
</g>
<g>
</g>
<g>
</g>
<g>
</g>
<g>
</g>
<g>
</g>
<g>
</g>
<g>
</g>
</svg>
