<svg xmlns="http://www.w3.org/2000/svg" viewBox="0 0 164.8 164.5"><defs><style>.cls-1,.cls-2,.cls-3{fill:none;stroke:#75c441;stroke-linecap:round;stroke-miterlimit:10;}.cls-1{stroke-width:7.02px;}.cls-2{stroke-width:6.43px;}.cls-3{stroke-width:5.85px;}.cls-4{fill:#75c441;}</style></defs><g id="Layer_2" data-name="Layer 2"><g id="Layer_2-2" data-name="Layer 2"><path class="cls-1" d="M157.55,73.05a40.49,40.49,0,0,1,.57,7.76c0,26.85-12.72,50.44-33.48,64.3"/><path class="cls-1" d="M99.08,156a68,68,0,0,1-18.27,2.17,77.31,77.31,0,0,1,0-154.61c18.72,0,35.14,6.05,48.51,17.11"/><circle class="cls-2" cx="148.82" cy="43.8" r="12.77"/><path class="cls-3" d="M46,57c19.71-4.4,41.78-14.15,54.28,6.25,3.88,6.32,6.84,15.54,8.52,28.71a1,1,0,0,1-.58,1l-5.43,2.24a1,1,0,0,0-.53,1.22l9.13,24.27a1,1,0,0,1-.89,1.29h-7.37a1,1,0,0,1-.68-.29L87.17,106.09a1,1,0,0,0-1.17-.16c-1.82,1.11-7.15,4.29-11.74,6.43a.94.94,0,0,0-.52,1.12c1.07,3.67,6.52,19.34,24,31.28a1,1,0,0,0,1.42-.47A13.61,13.61,0,0,1,111.13,136a12.77,12.77,0,0,1,1.52,25.45c-5,.53-10.66-1.55-13.05-5.85"/><path class="cls-3" d="M60,154.81c-5.88-108.5,27.3-88,38-90.8a11.36,11.36,0,0,0,2.29-.72c10.9-4.77,8-25.22-8.21-30.07h0a2.92,2.92,0,0,1-1.83-1.67l-5-12.24A1.51,1.51,0,0,0,84,18.38L75.5,17.06a1.52,1.52,0,0,0-1.75,1.5v9.65A2.84,2.84,0,0,1,71.33,31C55.91,33.3,49.05,45.81,46,57a71.3,71.3,0,0,0-2.41,18.83v73.21"/><path class="cls-4" d="M95.78,83.87l-2.29-4.1-.57-1A4.62,4.62,0,0,0,92.4,78,4.33,4.33,0,0,0,91,77a3.34,3.34,0,0,0-.83-.26c-.3-.06-.7-.12-1-.16A12.56,12.56,0,0,0,87,76.51a10,10,0,0,0-4,1,9.33,9.33,0,0,0-1.69,1.08l0,0h0s.06,0,.11-.11a1.08,1.08,0,0,0,.17-.19A1.48,1.48,0,0,0,81.77,77a1.62,1.62,0,0,0-.19-.42h0l.06.08.15.19c.09.13.21.26.32.39s.46.5.71.73a9.43,9.43,0,0,0,3.42,2.09,8.48,8.48,0,0,0,3.88.35A12.93,12.93,0,0,0,94,79.16l.13-.06a1.72,1.72,0,1,1,1.45,3.11l0,0a16.14,16.14,0,0,1-5,1.52,11.84,11.84,0,0,1-5.37-.62,12.49,12.49,0,0,1-4.48-2.89,11.87,11.87,0,0,1-.9-1c-.14-.17-.28-.34-.42-.53l-.2-.28-.11-.15v0a2,2,0,0,1-.21-.46,1.57,1.57,0,0,1,.24-1.31,2,2,0,0,1,.18-.21l.13-.11h0l0,0a12.75,12.75,0,0,1,2.3-1.38,13.22,13.22,0,0,1,5.13-1.13,16.82,16.82,0,0,1,2.57.15c.43.07.82.13,1.28.23a7,7,0,0,1,4.52,3.43l.56,1.06L98,82.68a1.25,1.25,0,0,1-2.2,1.19Z"/><path class="cls-3" d="M127.14,5.54l3.1,14.92a.55.55,0,0,1-.43.65L115,24.18"/></g></g></svg>